<mxfile host="Electron" modified="2023-11-21T16:02:09.888Z" agent="Mozilla/5.0 (Windows NT 10.0; Win64; x64) AppleWebKit/537.36 (KHTML, like Gecko) draw.io/22.1.2 Chrome/114.0.5735.289 Electron/25.9.4 Safari/537.36" etag="nYsLlwZQJeByJstCv75d" version="22.1.2" type="device">
  <diagram name="Страница — 1" id="xWkMaFfYQoGqJCeg4tKy">
    <mxGraphModel dx="1276" dy="614" grid="1" gridSize="10" guides="1" tooltips="1" connect="1" arrows="1" fold="1" page="1" pageScale="1" pageWidth="827" pageHeight="1169" math="0" shadow="0">
      <root>
        <mxCell id="0" />
        <mxCell id="1" parent="0" />
        <mxCell id="jiVKuzDZRNBNgPu-Mj4A-10" style="edgeStyle=orthogonalEdgeStyle;rounded=0;orthogonalLoop=1;jettySize=auto;html=1;exitX=1;exitY=0.5;exitDx=0;exitDy=0;entryX=0;entryY=0.5;entryDx=0;entryDy=0;" parent="1" source="jiVKuzDZRNBNgPu-Mj4A-3" target="jiVKuzDZRNBNgPu-Mj4A-6" edge="1">
          <mxGeometry relative="1" as="geometry" />
        </mxCell>
        <mxCell id="jiVKuzDZRNBNgPu-Mj4A-3" value="&lt;font style=&quot;font-size: 18px;&quot; face=&quot;Times New Roman&quot;&gt;Генерация тестовых данных&lt;/font&gt;" style="rounded=0;whiteSpace=wrap;html=1;" parent="1" vertex="1">
          <mxGeometry x="40" y="240" width="120" height="90" as="geometry" />
        </mxCell>
        <mxCell id="jiVKuzDZRNBNgPu-Mj4A-14" style="edgeStyle=orthogonalEdgeStyle;rounded=0;orthogonalLoop=1;jettySize=auto;html=1;exitX=1;exitY=0.5;exitDx=0;exitDy=0;" parent="1" source="jiVKuzDZRNBNgPu-Mj4A-4" target="jiVKuzDZRNBNgPu-Mj4A-9" edge="1">
          <mxGeometry relative="1" as="geometry">
            <mxPoint x="330" y="396.5" as="sourcePoint" />
          </mxGeometry>
        </mxCell>
        <mxCell id="jiVKuzDZRNBNgPu-Mj4A-4" value="&lt;font face=&quot;Times New Roman&quot; style=&quot;font-size: 18px;&quot;&gt;Выполнение умножения или сложения матриц&lt;/font&gt;" style="rounded=0;whiteSpace=wrap;html=1;" parent="1" vertex="1">
          <mxGeometry x="190" y="368.75" width="120" height="84.5" as="geometry" />
        </mxCell>
        <mxCell id="jiVKuzDZRNBNgPu-Mj4A-12" style="edgeStyle=orthogonalEdgeStyle;rounded=0;orthogonalLoop=1;jettySize=auto;html=1;exitX=1;exitY=0.5;exitDx=0;exitDy=0;" parent="1" source="jiVKuzDZRNBNgPu-Mj4A-5" target="jiVKuzDZRNBNgPu-Mj4A-7" edge="1">
          <mxGeometry relative="1" as="geometry" />
        </mxCell>
        <mxCell id="jiVKuzDZRNBNgPu-Mj4A-5" value="&lt;font style=&quot;font-size: 18px;&quot; face=&quot;Times New Roman&quot;&gt;Чтение тестовых данных&lt;/font&gt;" style="rounded=0;whiteSpace=wrap;html=1;" parent="1" vertex="1">
          <mxGeometry x="360" y="240" width="126" height="90" as="geometry" />
        </mxCell>
        <mxCell id="jiVKuzDZRNBNgPu-Mj4A-11" style="edgeStyle=orthogonalEdgeStyle;rounded=0;orthogonalLoop=1;jettySize=auto;html=1;exitX=1;exitY=0.5;exitDx=0;exitDy=0;entryX=0;entryY=0.5;entryDx=0;entryDy=0;" parent="1" source="jiVKuzDZRNBNgPu-Mj4A-6" target="jiVKuzDZRNBNgPu-Mj4A-5" edge="1">
          <mxGeometry relative="1" as="geometry" />
        </mxCell>
        <mxCell id="jiVKuzDZRNBNgPu-Mj4A-6" value="&lt;font style=&quot;font-size: 18px;&quot; face=&quot;Times New Roman&quot;&gt;Запись тестовых данных в файл&lt;/font&gt;" style="rounded=0;whiteSpace=wrap;html=1;" parent="1" vertex="1">
          <mxGeometry x="210" y="240" width="120" height="90" as="geometry" />
        </mxCell>
        <mxCell id="uQXW7-n7qWeptFhBmG2B-2" style="edgeStyle=orthogonalEdgeStyle;rounded=0;orthogonalLoop=1;jettySize=auto;html=1;exitX=1;exitY=0.5;exitDx=0;exitDy=0;entryX=0;entryY=0.5;entryDx=0;entryDy=0;" edge="1" parent="1" source="jiVKuzDZRNBNgPu-Mj4A-7" target="uQXW7-n7qWeptFhBmG2B-1">
          <mxGeometry relative="1" as="geometry" />
        </mxCell>
        <mxCell id="jiVKuzDZRNBNgPu-Mj4A-7" value="&lt;font style=&quot;font-size: 18px;&quot; face=&quot;Times New Roman&quot;&gt;Начало отсчета времени выполнения&lt;/font&gt;" style="rounded=0;whiteSpace=wrap;html=1;" parent="1" vertex="1">
          <mxGeometry x="520" y="240" width="120" height="90" as="geometry" />
        </mxCell>
        <mxCell id="jiVKuzDZRNBNgPu-Mj4A-8" value="&lt;font style=&quot;font-size: 18px;&quot; face=&quot;Times New Roman&quot;&gt;Вывод времени выполнения на экран&lt;/font&gt;" style="rounded=0;whiteSpace=wrap;html=1;" parent="1" vertex="1">
          <mxGeometry x="530" y="368.13" width="120" height="85.75" as="geometry" />
        </mxCell>
        <mxCell id="jiVKuzDZRNBNgPu-Mj4A-15" style="edgeStyle=orthogonalEdgeStyle;rounded=0;orthogonalLoop=1;jettySize=auto;html=1;exitX=1;exitY=0.5;exitDx=0;exitDy=0;entryX=0;entryY=0.5;entryDx=0;entryDy=0;" parent="1" source="jiVKuzDZRNBNgPu-Mj4A-9" target="jiVKuzDZRNBNgPu-Mj4A-8" edge="1">
          <mxGeometry relative="1" as="geometry" />
        </mxCell>
        <mxCell id="jiVKuzDZRNBNgPu-Mj4A-9" value="&lt;font style=&quot;font-size: 18px;&quot; face=&quot;Times New Roman&quot;&gt;Остановка таймера&amp;nbsp;&lt;/font&gt;" style="rounded=0;whiteSpace=wrap;html=1;" parent="1" vertex="1">
          <mxGeometry x="360" y="366.5" width="120" height="89" as="geometry" />
        </mxCell>
        <mxCell id="uQXW7-n7qWeptFhBmG2B-1" value="A" style="ellipse;whiteSpace=wrap;html=1;aspect=fixed;" vertex="1" parent="1">
          <mxGeometry x="690" y="237.5" width="95" height="95" as="geometry" />
        </mxCell>
        <mxCell id="uQXW7-n7qWeptFhBmG2B-4" style="edgeStyle=orthogonalEdgeStyle;rounded=0;orthogonalLoop=1;jettySize=auto;html=1;exitX=1;exitY=0.5;exitDx=0;exitDy=0;entryX=0;entryY=0.5;entryDx=0;entryDy=0;" edge="1" parent="1" source="uQXW7-n7qWeptFhBmG2B-3" target="jiVKuzDZRNBNgPu-Mj4A-4">
          <mxGeometry relative="1" as="geometry" />
        </mxCell>
        <mxCell id="uQXW7-n7qWeptFhBmG2B-3" value="A" style="ellipse;whiteSpace=wrap;html=1;aspect=fixed;" vertex="1" parent="1">
          <mxGeometry x="40" y="361" width="100" height="100" as="geometry" />
        </mxCell>
      </root>
    </mxGraphModel>
  </diagram>
</mxfile>
